<svg width="24" height="22" viewBox="0 0 24 22" fill="none" xmlns="http://www.w3.org/2000/svg">
<path d="M9.60015 2.39985C5.44362 2.39985 2.40062 5.25326 2.40062 8.39946C2.40062 9.45539 2.72819 10.4525 3.31856 11.3273C3.41942 11.4765 3.48539 11.6466 3.51156 11.8248C3.53773 12.003 3.52344 12.1849 3.46975 12.3568L2.92378 14.1075L5.67761 13.6659C5.90077 13.63 6.12954 13.6579 6.33756 13.7463C7.37009 14.1812 8.47978 14.4032 9.60015 14.3991C13.7567 14.3991 16.7997 11.5457 16.7997 8.39946C16.7997 5.25326 13.7567 2.39985 9.60015 2.39985ZM0.000769845 8.39946C0.000769845 3.59377 4.47888 0 9.60015 0C14.7214 0 19.1995 3.59377 19.1995 8.39946C19.1995 13.2052 14.7214 16.7989 9.60015 16.7989C8.27635 16.8023 6.96327 16.5615 5.7268 16.0886L1.39028 16.7845C1.18844 16.817 0.981661 16.7973 0.789559 16.7274C0.597456 16.6575 0.426401 16.5396 0.292619 16.385C0.158837 16.2305 0.0667664 16.0443 0.0251396 15.8441C-0.0164871 15.644 -0.00628908 15.4365 0.0547665 15.2414L1.0147 12.166C0.352265 11.0211 0.00258993 9.72217 0.000769845 8.39946Z" fill="white"/>
<path d="M16.8885 6.2396C16.829 6.38558 16.7988 6.54187 16.7996 6.69954C16.8005 6.85721 16.8324 7.01315 16.8936 7.15847C16.9548 7.30378 17.044 7.43561 17.1562 7.54643C17.2683 7.65724 17.4012 7.74487 17.5473 7.8043C20.0311 8.81583 21.5994 10.9133 21.5994 13.1991C21.5994 14.2551 21.2718 15.2522 20.6815 16.127C20.5806 16.2762 20.5146 16.4463 20.4885 16.6245C20.4623 16.8027 20.4766 16.9845 20.5303 17.1565L21.0762 18.9072L18.3224 18.4656C18.0993 18.4297 17.8705 18.4576 17.6625 18.546C16.6299 18.9809 15.5202 19.2029 14.3999 19.1988C11.1553 19.1988 8.52865 17.4241 7.58791 15.1418C7.46666 14.8475 7.23344 14.6133 6.93955 14.4909C6.64566 14.3685 6.31518 14.3678 6.02081 14.4891C5.72644 14.6103 5.49229 14.8435 5.36988 15.1374C5.24746 15.4313 5.2468 15.7618 5.36805 16.0562C6.73477 19.3668 10.3321 21.5986 14.3999 21.5986C15.7237 21.602 17.0368 21.3612 18.2732 20.8883L22.6097 21.5842C22.8116 21.6166 23.0184 21.597 23.2105 21.5271C23.4026 21.4571 23.5736 21.3393 23.7074 21.1847C23.8412 21.0302 23.9333 20.844 23.9749 20.6438C24.0165 20.4437 24.0063 20.2362 23.9453 20.0411L22.9853 16.9657C23.6478 15.8208 23.9974 14.5219 23.9993 13.1991C23.9993 9.74097 21.6438 6.88035 18.452 5.58084C18.306 5.5215 18.1498 5.4915 17.9922 5.49255C17.8346 5.4936 17.6788 5.52569 17.5336 5.58697C17.3884 5.64825 17.2567 5.73754 17.146 5.84972C17.0353 5.96191 16.9478 6.09479 16.8885 6.2408V6.2396Z" fill="white"/>
</svg>
