<svg width="11" height="12" viewBox="0 0 11 12" fill="none" xmlns="http://www.w3.org/2000/svg">
<path d="M11 3.80727V8.72727C11 9.32727 10.505 9.81818 9.9 9.81818H2.2L0 12V2.18182C0 1.58182 0.495 1.09091 1.1 1.09091H6.655C6.57364 1.48718 6.58212 1.89643 6.67984 2.28905C6.77755 2.68167 6.96204 3.04784 7.21997 3.36106C7.4779 3.67428 7.80281 3.92672 8.1712 4.10011C8.53958 4.27351 8.94223 4.36352 9.35 4.36364C9.9715 4.36364 10.538 4.15091 11 3.80727ZM7.7 1.63636C7.7 2.54182 8.437 3.27273 9.35 3.27273C10.263 3.27273 11 2.54182 11 1.63636C11 0.730909 10.263 0 9.35 0C8.437 0 7.7 0.730909 7.7 1.63636Z" fill="#C4C4C4"/>
</svg>
