<svg width="13" height="14" viewBox="0 0 13 14" fill="none" xmlns="http://www.w3.org/2000/svg">
<path d="M6.50008 2.625C3.79175 2.625 1.47883 4.43917 0.541748 7C1.47883 9.56083 3.79175 11.375 6.50008 11.375C9.20841 11.375 11.5213 9.56083 12.4584 7C11.5213 4.43917 9.20841 2.625 6.50008 2.625ZM6.50008 9.91667C5.00508 9.91667 3.79175 8.61 3.79175 7C3.79175 5.39 5.00508 4.08333 6.50008 4.08333C7.99508 4.08333 9.20841 5.39 9.20841 7C9.20841 8.61 7.99508 9.91667 6.50008 9.91667ZM6.50008 5.25C5.60091 5.25 4.87508 6.03167 4.87508 7C4.87508 7.96833 5.60091 8.75 6.50008 8.75C7.39925 8.75 8.12508 7.96833 8.12508 7C8.12508 6.03167 7.39925 5.25 6.50008 5.25Z" fill="#C4C4C4"/>
</svg>
